# xmcd
#
# Track frame offsets:
#	150
#	13138
#	28403
#	45099
#	55671
#	72063
#	85469
#	98123
#	109928
#	127459
#	140831
#	152877
#	168341
#	182899
#	196838
#	214087
#
# Disc length: 3096 seconds
#
# Revision: 1
# Processed by: cddbd v1.5.1PL2 Copyright (c) Steve Scherf et al.
# Submitted via: audiograbber 1.83.01
#
DISCID=e90c1610
DTITLE=Various Artist - De Country Gids-CD '98-'99 - 1
DYEAR=1900
DGENRE=
TTITLE0=Major Dundee - Twist the dial
TTITLE1=Outbound - The roots run deep
TTITLE2=Gunshot - Who's cheatin' who
TTITLE3=Spruce Pine - Banjo Mountain
TTITLE4=West Virginian Railroad - The day El Paso died
TTITLE5=Lawton, Jimmy - Cowboy mad and guitar crazy
TTITLE6=Steel Horse - Crazy mixed emotions
TTITLE7=Silverstreak - Lets get back to me and you
TTITLE8=Hayes, Helen - For reasons I've forgotten
TTITLE9=Hillbilly Boogiemen - White lightnin'
TTITLE10=Kaye, Jenny - The cry of the wild goose
TTITLE11=Belvedeer, Johnny - Create in me a clean heart
TTITLE12=Jansen, Frank - You're a phone call
TTITLE13=Renegades - No one needs to know
TTITLE14=Phoenix - Tell me why
TTITLE15=Cotton Candy - Blue eyes cryin' in the rain
EXTD=
EXTT0=
EXTT1=
EXTT2=
EXTT3=
EXTT4=
EXTT5=
EXTT6=
EXTT7=
EXTT8=
EXTT9=
EXTT10=
EXTT11=
EXTT12=
EXTT13=
EXTT14=
EXTT15=
PLAYORDER=
